<?xml version="1.0" encoding="UTF-8"?>
<!DOCTYPE svg PUBLIC "-//W3C//DTD SVG 1.1//EN" "http://www.w3.org/Graphics/SVG/1.1/DTD/svg11.dtd">
<!-- Creator: CorelDRAW 2021.5 -->
<svg xmlns="http://www.w3.org/2000/svg" xml:space="preserve" width="882.841mm" height="238.408mm" version="1.1" style="shape-rendering:geometricPrecision; text-rendering:geometricPrecision; image-rendering:optimizeQuality; fill-rule:evenodd; clip-rule:evenodd"
viewBox="0 0 88284.1 23840.8"
 xmlns:xlink="http://www.w3.org/1999/xlink"
 xmlns:xodm="http://www.corel.com/coreldraw/odm/2003">
 <defs>
  <style type="text/css">
   <![CDATA[
    .fil0 {fill:white}
   ]]>
  </style>
 </defs>
 <g id="Layer_x0020_1">
  <metadata id="CorelCorpID_0Corel-Layer"/>
  <g id="_2872563797760">
   <path class="fil0" d="M10258.63 18422.79l0 451.56c0,1584.67 -1721.62,2348.01 -3431.72,2348.01 -1356.59,0 -2581.6,-414.69 -3536.17,-798.67l-2157.69 -1093.18c-225.13,-131.19 -517.08,-341.61 -808.27,-365.8l0 3792.79c926.79,444.77 3996.17,993.35 5147.59,993.35 3058.75,0 5856.65,-120.06 7829.52,-2555.62 1422.89,-1756.56 1652.64,-4889.42 263.28,-6982.09 -1537.31,-2315.63 -4758.23,-3554.73 -7071.04,-4939.73 -907.98,-543.58 -2557.03,-1594.91 -2557.03,-2861.26 0,-982.34 -20.09,-1379.62 900.68,-1989.12 1650.84,-1093.05 4865.62,-261.75 6581.99,376.42 439.4,163.45 882.89,416.1 1367.34,528.99l0 -3431.59c-787.54,0 -2765.78,-541.92 -4876.5,-541.92 -2688.34,0 -5407.27,306.41 -7044.8,2618.08 -534.37,754.38 -977.35,2113.79 -841.42,3274.16 325.99,2780.5 1415.72,4052.87 3964.8,5614.88 1134.65,695.26 3920.27,2174.08 4664.8,2830.67 814.41,718.42 1604.64,1483.69 1604.64,2730.07z"/>
   <path class="fil0" d="M21366.29 14991.2c0,-7522.73 8037.38,-7425.71 8037.38,-90.36 0,2494.31 -670.93,6502.12 -3702.68,6502.12l-632.15 0c-1395.5,0 -2482.53,-1142.2 -2917.58,-2139.51 -501.73,-1150.01 -784.97,-2660.06 -784.97,-4272.25zm-4425.07 0c0,2593.89 458.85,4662.37 2232.95,6526.83 1300.4,1366.69 3593.37,2323.18 5533.48,2323.18l159.09 0 234.61 0 77.18 0c1488.42,-2.56 2710.49,-49.28 4105.85,-751.44 1841.17,-926.41 3004.1,-1965.19 3848.34,-3917.97 1143.61,-2645.72 920.65,-6413.16 -748.24,-8786.9 -3748.5,-5331.38 -12522.61,-4118.66 -14709.36,1276.46 -378.47,933.83 -733.9,2038.66 -733.9,3329.84z"/>
   <path class="fil0" d="M45749.15 17971.37c0,1697.04 523.36,3099.45 1262.13,4065.92 1291.57,1689.37 2888.52,1803.92 4788.43,1803.92 1451.18,0 2722.65,-738 3587.75,-1379.24 688.21,-510.05 1296.69,-1270.58 1794.58,-1998.22 771.02,-1126.96 1822.86,-2397.03 2561.88,-3669.27 619.87,-1067.45 905.93,-2468.07 905.93,-4151.29l0 -5057.1c0,-208.11 -62.84,-270.95 -270.96,-270.95l-4063.87 0 0 8217.85c0,1324.97 -319.85,2371.69 -780.5,3283.25 -1104.7,2185.72 -4384.49,2310.26 -5169.47,228.6 -290.8,-771.03 -371.43,-1917.45 -371.43,-2969.93l0 -8759.77 -4244.47 0 0 10656.23z"/>
   <polygon class="fil0" points="37169.97,23480.01 41414.44,23480.01 41414.44,0.39 37169.97,0.39 "/>
   <path class="fil0" d="M68596.87 9482.55c0,-391.27 -2.94,-783.69 0.64,-1174.71 12.29,-1288.88 544.1,-992.7 -3793.55,-992.7 -208.12,0 -270.96,62.84 -270.96,270.95l0 15893.92 4334.71 0 0 -8579.17c0,-2174.2 787.79,-4605.54 2889.8,-4605.54 1753.49,0 2528.61,840.65 2528.61,2889.81l0 10294.9 4244.47 0 0 -7495.46c0,-2589.79 296.69,-5689.25 3251,-5689.25 1177.65,0 1783.57,679.9 2061.44,1550.88 309.87,971.2 196.21,10229.38 196.21,11633.83l4244.47 0 0 -10294.9c0,-3656.35 -1317.29,-6231.17 -5237.82,-6231.17 -1428,0 -3128.38,640.09 -4089.98,1599.26 -307.05,306.29 -612.83,916.42 -876.88,1109.95 -1011.64,-1911.82 -2498.4,-2709.21 -4786.26,-2709.21 -1448.99,0 -2930.37,623.2 -3861.64,1556.77l-834.26 971.84z"/>
  </g>
 </g>
</svg>
